<svg width="31" height="31" viewBox="0 0 31 31" fill="none" xmlns="http://www.w3.org/2000/svg">
<g id="FileArrowUp" clip-path="url(#clip0_56_2321)">
<path id="Vector" d="M25.5383 10.1492L18.9758 3.58672C18.8887 3.49969 18.7852 3.43067 18.6714 3.38362C18.5576 3.33657 18.4357 3.3124 18.3125 3.3125H7.0625C6.56522 3.3125 6.08831 3.51004 5.73667 3.86167C5.38504 4.21331 5.1875 4.69022 5.1875 5.1875V25.8125C5.1875 26.3098 5.38504 26.7867 5.73667 27.1383C6.08831 27.49 6.56522 27.6875 7.0625 27.6875H23.9375C24.4348 27.6875 24.9117 27.49 25.2633 27.1383C25.615 26.7867 25.8125 26.3098 25.8125 25.8125V10.8125C25.8126 10.6893 25.7884 10.5674 25.7414 10.4536C25.6943 10.3398 25.6253 10.2363 25.5383 10.1492ZM18.9758 18.0383C18.8887 18.1254 18.7853 18.1946 18.6715 18.2418C18.5577 18.289 18.4357 18.3132 18.3125 18.3132C18.1893 18.3132 18.0673 18.289 17.9535 18.2418C17.8397 18.1946 17.7363 18.1254 17.6492 18.0383L16.4375 16.8254V22.0625C16.4375 22.3111 16.3387 22.5496 16.1629 22.7254C15.9871 22.9012 15.7486 23 15.5 23C15.2514 23 15.0129 22.9012 14.8371 22.7254C14.6613 22.5496 14.5625 22.3111 14.5625 22.0625V16.8254L13.3508 18.0383C13.2637 18.1254 13.1603 18.1945 13.0465 18.2416C12.9327 18.2888 12.8107 18.313 12.6875 18.313C12.5643 18.313 12.4423 18.2888 12.3285 18.2416C12.2147 18.1945 12.1113 18.1254 12.0242 18.0383C11.9371 17.9512 11.868 17.8478 11.8209 17.734C11.7737 17.6202 11.7495 17.4982 11.7495 17.375C11.7495 17.2518 11.7737 17.1298 11.8209 17.016C11.868 16.9022 11.9371 16.7988 12.0242 16.7117L14.8367 13.8992C14.9238 13.8121 15.0272 13.7429 15.141 13.6957C15.2548 13.6485 15.3768 13.6243 15.5 13.6243C15.6232 13.6243 15.7452 13.6485 15.859 13.6957C15.9728 13.7429 16.0762 13.8121 16.1633 13.8992L18.9758 16.7117C19.0629 16.7988 19.1321 16.9022 19.1793 17.016C19.2265 17.1298 19.2507 17.2518 19.2507 17.375C19.2507 17.4982 19.2265 17.6202 19.1793 17.734C19.1321 17.8478 19.0629 17.9512 18.9758 18.0383ZM18.3125 10.8125V5.65625L23.4688 10.8125H18.3125Z" fill="#1A1B1C"/>
</g>
<defs>
<clipPath id="clip0_56_2321">
<rect width="30" height="30" fill="white" transform="translate(0.5 0.5)"/>
</clipPath>
</defs>
</svg>
