<svg width="21" height="20" viewBox="0 0 21 20" fill="none" xmlns="http://www.w3.org/2000/svg">
<g clip-path="url(#clip0_346_645)">
<path d="M7.375 18.125C8.06536 18.125 8.625 17.5654 8.625 16.875C8.625 16.1846 8.06536 15.625 7.375 15.625C6.68464 15.625 6.125 16.1846 6.125 16.875C6.125 17.5654 6.68464 18.125 7.375 18.125Z" fill="white"/>
<path d="M15.5 18.125C16.1904 18.125 16.75 17.5654 16.75 16.875C16.75 16.1846 16.1904 15.625 15.5 15.625C14.8096 15.625 14.25 16.1846 14.25 16.875C14.25 17.5654 14.8096 18.125 15.5 18.125Z" fill="white"/>
<path d="M1.75 2.5H3.625L6.49609 12.8344C6.56916 13.0976 6.72643 13.3296 6.94384 13.4949C7.16126 13.6603 7.42685 13.7499 7.7 13.75H15.4219C15.6952 13.7501 15.9609 13.6605 16.1785 13.4952C16.3961 13.3298 16.5535 13.0977 16.6266 12.8344L18.625 5.625H4.49297" stroke="white" stroke-width="1.4" stroke-linecap="round" stroke-linejoin="round"/>
</g>
<defs>
<clipPath id="clip0_346_645">
<rect width="20" height="20" fill="white" transform="translate(0.5)"/>
</clipPath>
</defs>
</svg>
