<svg width="32" height="32" viewBox="0 0 32 32" fill="none" xmlns="http://www.w3.org/2000/svg">
<g id="Whatsapp">
<path id="Vector" d="M5.17779 28.6616C5.07948 28.9615 5.16672 29.2912 5.40049 29.5033C5.63427 29.7153 5.97088 29.7701 6.25984 29.6431L12.1456 27.0567C13.6339 27.6937 15.3243 28.0049 16.9989 28.0049C23.9941 28.0049 29.7107 22.2713 29.7107 15.2637C29.7107 8.25607 23.9941 2.52251 16.9989 2.52251C10.0038 2.52251 4.28716 8.25607 4.28716 15.2637C4.28716 18.2022 5.34751 20.9667 6.99983 23.1025L5.17779 28.6616Z" stroke="white" stroke-width="1.6" stroke-miterlimit="10" stroke-linecap="round" stroke-linejoin="round"/>
<g id="Page-1">
<g id="Whatsapp_2">
<path id="Stroke-28" d="M23.5353 19.4987C23.7912 18.7308 23.7912 18.1335 23.7059 17.9629C23.6206 17.7922 23.4499 17.7922 23.1086 17.6216C22.7673 17.4509 21.2315 16.683 20.9755 16.5976C20.7195 16.5123 20.3782 16.5123 20.2076 16.8536C19.8663 17.2802 19.6103 17.7069 19.3543 17.9629C19.1837 18.1335 18.8424 18.2188 18.5864 18.0482C18.2451 17.8775 17.2212 17.5362 16.0266 16.5123C15.088 15.6591 14.4908 14.6352 14.2348 14.2939C14.0641 13.9526 14.2348 13.7819 14.4054 13.6112C14.5761 13.4406 14.7467 13.2699 14.9174 13.0993C15.088 12.9286 15.1734 12.8433 15.2587 12.5873C15.344 12.4167 15.2587 12.1607 15.1734 11.9901C15.088 11.8194 14.4908 10.2835 14.2348 9.68627C14.0641 9.17432 13.8935 9.17432 13.5522 9.17432C13.4668 9.17432 13.2962 9.17432 13.2109 9.17432C12.7842 9.17432 12.3576 9.25964 12.1016 9.60094C11.7603 9.94225 10.9924 10.7102 10.9924 12.246C10.9924 13.7819 12.1016 15.3178 12.2723 15.4884C12.4429 15.6591 14.4908 18.9014 17.6478 20.2666C20.1222 21.2906 20.8902 21.2052 21.4021 21.1199C22.2554 20.8639 23.2793 20.2666 23.5353 19.4987Z" fill="white"/>
</g>
</g>
</g>
</svg>
