<svg width="32" height="32" viewBox="0 0 32 32" fill="none" xmlns="http://www.w3.org/2000/svg">
<g id="instagram">
<path id="Vector" d="M22.8713 7.58477C22.5659 7.58477 22.2674 7.67533 22.0135 7.84501C21.7595 8.01467 21.5616 8.25583 21.4447 8.53798C21.3279 8.82013 21.2973 9.1306 21.3569 9.43013C21.4165 9.72966 21.5635 10.0048 21.7795 10.2207C21.9954 10.4367 22.2706 10.5838 22.5701 10.6433C22.8696 10.7029 23.1801 10.6723 23.4622 10.5555C23.7444 10.4386 23.9855 10.2407 24.1552 9.98676C24.3249 9.73283 24.4154 9.43429 24.4154 9.12889C24.4154 8.71937 24.2528 8.32661 23.9632 8.03704C23.6736 7.74746 23.2808 7.58477 22.8713 7.58477ZM28.7904 10.6987C28.7654 9.63111 28.5655 8.57481 28.1985 7.57191C27.8713 6.7138 27.3621 5.93679 26.7059 5.29433C26.0687 4.63477 25.2899 4.12875 24.4283 3.81455C23.4281 3.43645 22.3706 3.23192 21.3015 3.20977C19.9375 3.13257 19.5 3.13257 16 3.13257C12.5 3.13257 12.0625 3.13257 10.6985 3.20977C9.62943 3.23192 8.57195 3.43645 7.57169 3.81455C6.71172 4.13193 5.93356 4.63752 5.29412 5.29433C4.63456 5.93151 4.12854 6.71034 3.81434 7.57191C3.43624 8.57216 3.23171 9.62964 3.20956 10.6987C3.13235 12.0627 3.13235 12.5002 3.13235 16.0002C3.13235 19.5002 3.13235 19.9377 3.20956 21.3017C3.23171 22.3708 3.43624 23.4283 3.81434 24.4285C4.12854 25.2901 4.63456 26.0689 5.29412 26.7061C5.93356 27.3629 6.71172 27.8685 7.57169 28.1859C8.57195 28.564 9.62943 28.7685 10.6985 28.7907C12.0625 28.8679 12.5 28.8679 16 28.8679C19.5 28.8679 19.9375 28.8679 21.3015 28.7907C22.3706 28.7685 23.4281 28.564 24.4283 28.1859C25.2899 27.8717 26.0687 27.3657 26.7059 26.7061C27.365 26.066 27.8747 25.2883 28.1985 24.4285C28.5655 23.4256 28.7654 22.3693 28.7904 21.3017C28.7904 19.9377 28.8676 19.5002 28.8676 16.0002C28.8676 12.5002 28.8676 12.0627 28.7904 10.6987ZM26.4743 21.1473C26.4649 21.9641 26.317 22.7734 26.0368 23.5407C25.8313 24.1006 25.5013 24.6066 25.0717 25.0204C24.6543 25.4457 24.1494 25.775 23.5919 25.9855C22.8246 26.2657 22.0153 26.4136 21.1985 26.423C19.9118 26.4873 19.4357 26.5002 16.0515 26.5002C12.6673 26.5002 12.1912 26.5002 10.9044 26.423C10.0563 26.4389 9.2118 26.3083 8.40809 26.037C7.87509 25.8158 7.39329 25.4873 6.99265 25.0719C6.56556 24.6585 6.23969 24.1521 6.04044 23.5921C5.72629 22.8138 5.55204 21.9862 5.52574 21.1473C5.52574 19.8605 5.44853 19.3844 5.44853 16.0002C5.44853 12.616 5.44853 12.1399 5.52574 10.8532C5.5315 10.0181 5.68394 9.19059 5.9761 8.4083C6.20264 7.86517 6.55034 7.38103 6.99265 6.99286C7.38358 6.55043 7.86673 6.19905 8.40809 5.96345C9.19244 5.68042 10.0191 5.53249 10.8529 5.52595C12.1397 5.52595 12.6158 5.44874 16 5.44874C19.3842 5.44874 19.8603 5.44874 21.1471 5.52595C21.9639 5.53532 22.7731 5.68325 23.5404 5.96345C24.1252 6.18047 24.65 6.53329 25.0717 6.99286C25.4934 7.38813 25.8229 7.87138 26.0368 8.4083C26.3228 9.19186 26.4708 10.019 26.4743 10.8532C26.5386 12.1399 26.5515 12.616 26.5515 16.0002C26.5515 19.3844 26.5386 19.8605 26.4743 21.1473ZM16 9.39911C14.695 9.40166 13.42 9.79097 12.3361 10.5178C11.2523 11.2447 10.4082 12.2766 9.91056 13.483C9.41291 14.6894 9.28402 16.0163 9.54018 17.2959C9.79633 18.5755 10.426 19.7505 11.3497 20.6724C12.2734 21.5943 13.4496 22.2217 14.7298 22.4754C16.0099 22.7291 17.3365 22.5976 18.542 22.0976C19.7474 21.5976 20.7776 20.7515 21.5024 19.6663C22.2271 18.581 22.614 17.3052 22.614 16.0002C22.6157 15.1318 22.4457 14.2716 22.1137 13.4691C21.7818 12.6666 21.2945 11.9377 20.6798 11.3242C20.0651 10.7107 19.3352 10.2248 18.5321 9.89443C17.729 9.56405 16.8684 9.39572 16 9.39911ZM16 20.2851C15.1525 20.2851 14.3241 20.0338 13.6194 19.563C12.9148 19.0922 12.3656 18.423 12.0412 17.64C11.7169 16.857 11.6321 15.9955 11.7974 15.1643C11.9627 14.3331 12.3708 13.5696 12.9701 12.9703C13.5694 12.3711 14.3329 11.963 15.1641 11.7976C15.9952 11.6323 16.8568 11.7171 17.6398 12.0415C18.4227 12.3658 19.092 12.915 19.5628 13.6196C20.0336 14.3243 20.2849 15.1527 20.2849 16.0002C20.2849 16.5629 20.1741 17.1201 19.9588 17.64C19.7434 18.1599 19.4278 18.6322 19.0299 19.0301C18.632 19.428 18.1596 19.7436 17.6398 19.959C17.1199 20.1743 16.5627 20.2851 16 20.2851Z" fill="white"/>
</g>
</svg>
