<svg width="33" height="32" viewBox="0 0 33 32" fill="none" xmlns="http://www.w3.org/2000/svg">
<g id="instagram">
<g id="Vector">
<path d="M29.1364 28.108H23.6907V19.4437C23.6907 17.2732 22.9102 15.856 20.9316 15.856C20.3193 15.8604 19.723 16.0503 19.2232 16.3999C18.7234 16.7495 18.344 17.2421 18.1362 17.8113C17.9941 18.2329 17.9326 18.677 17.9546 19.1208V28.09H12.509V11.9454H17.9546V14.2236C18.4493 13.3753 19.1689 12.6765 20.0357 12.2023C20.9025 11.7282 21.8838 11.4967 22.8739 11.5328C26.5043 11.5328 29.1364 13.8469 29.1364 18.8159V28.108Z" fill="white"/>
<path d="M9.49575 28.108H4.05011V11.9634H9.49575V28.108Z" fill="white"/>
<path d="M6.77293 9.70312C6.0219 9.70312 5.30164 9.40829 4.77059 8.88349C4.23953 8.35868 3.94119 7.6469 3.94119 6.90472C3.94119 6.16254 4.23953 5.45075 4.77059 4.92595C5.30164 4.40115 6.0219 4.10632 6.77293 4.10632C7.17172 4.06162 7.57557 4.10067 7.95803 4.22091C8.3405 4.34115 8.69295 4.53987 8.99231 4.80406C9.29167 5.06824 9.53119 5.39193 9.69519 5.75393C9.85918 6.11594 9.94396 6.50809 9.94396 6.90472C9.94396 7.30134 9.85918 7.6935 9.69519 8.0555C9.53119 8.41751 9.29167 8.7412 8.99231 9.00538C8.69295 9.26957 8.3405 9.46828 7.95803 9.58852C7.57557 9.70876 7.17172 9.74781 6.77293 9.70312Z" fill="white"/>
</g>
</g>
</svg>
